<?xml version="1.0" encoding="UTF-8"?>
<svg version="1.1" xmlns="http://www.w3.org/2000/svg" width="364" height="106">
<path d="M0 0 C4.29 0 8.58 0 13 0 C12.67 1.65 12.34 3.3 12 5 C14.31 5.33 16.62 5.66 19 6 C18.43215559 9.47999362 17.57571003 12.14781041 15.83984375 15.2109375 C15.38383789 16.02820313 14.92783203 16.84546875 14.45800781 17.6875 C13.95624023 18.574375 13.45447266 19.46125 12.9375 20.375 C6.97782157 31.08408371 1.34323551 41.94012103 -4.21508789 52.86083984 C-7.73311768 59.74963435 -11.38872699 66.52330041 -15.26216125 73.21916199 C-17.64894674 77.35260078 -19.85259036 81.52003898 -21.9375 85.8125 C-24.90692641 91.90692641 -24.90692641 91.90692641 -26 93 C-28.35313555 93.07271741 -30.70833668 93.08370868 -33.0625 93.0625 C-34.99802734 93.04896484 -34.99802734 93.04896484 -36.97265625 93.03515625 C-37.97167969 93.02355469 -38.97070312 93.01195313 -40 93 C-39.67 91.35 -39.34 89.7 -39 88 C-41.31 87.67 -43.62 87.34 -46 87 C-46.99 88.98 -47.98 90.96 -49 93 C-57.91 93 -66.82 93 -76 93 C-75.67 91.02 -75.34 89.04 -75 87 C-77.31 87 -79.62 87 -82 87 C-81.29244778 78.84075853 -79.63787499 70.9395529 -77.9375 62.9375 C-77.65260708 61.5814616 -77.36809891 60.22534232 -77.08398438 58.86914062 C-76.3930909 55.57861406 -75.69833305 52.28895426 -75 49 C-78.68555845 51.45703897 -78.61527273 52.39507145 -79.5 56.609375 C-79.74596924 57.75100098 -79.99193848 58.89262695 -80.24536133 60.06884766 C-80.49439209 61.28362793 -80.74342285 62.4984082 -81 63.75 C-81.26127686 64.97380371 -81.52255371 66.19760742 -81.79174805 67.45849609 C-82.53954572 70.96999533 -83.27223481 74.48430208 -84 78 C-84.60110023 80.87566349 -85.20592321 83.75048337 -85.8125 86.625 C-86.02519531 87.66914062 -86.23789063 88.71328125 -86.45703125 89.7890625 C-87 92 -87 92 -88 93 C-89.85369611 93.08737645 -91.71067541 93.10698153 -93.56640625 93.09765625 C-94.69111328 93.09443359 -95.81582031 93.09121094 -96.97460938 93.08789062 C-98.15861328 93.07951172 -99.34261719 93.07113281 -100.5625 93.0625 C-101.75037109 93.05798828 -102.93824219 93.05347656 -104.16210938 93.04882812 C-107.10812226 93.03699675 -110.05403681 93.02051287 -113 93 C-113 91.02 -113 89.04 -113 87 C-114.98 87 -116.96 87 -119 87 C-120.42244085 82.36427551 -119.14767462 78.5846581 -118 74 C-117.48680574 71.88030748 -116.97940729 69.75933346 -116.4753418 67.63745117 C-116.12383861 66.15884016 -115.76868594 64.68109069 -115.40942383 63.2043457 C-114.35872875 58.81489881 -113.57002333 54.4779152 -113 50 C-116.62765975 52.41843983 -116.69963494 53.99961434 -117.53396606 58.12145996 C-117.69033539 58.95794067 -117.84670471 59.79442139 -118.0078125 60.65625 C-118.17876434 61.51432251 -118.34971619 62.37239502 -118.52584839 63.25646973 C-119.07064699 66.00215229 -119.59838953 68.75077651 -120.125 71.5 C-120.66202594 74.24847859 -121.20251775 76.99623728 -121.74557495 79.74353027 C-122.08260639 81.45436894 -122.41550644 83.16602754 -122.743927 84.87854004 C-123.89069771 90.78139543 -123.89069771 90.78139543 -125 93 C-134.24 93 -143.48 93 -153 93 C-153 91.02 -153 89.04 -153 87 C-154.98 87 -156.96 87 -159 87 C-160.07365377 83.7790387 -159.93405499 82.76285435 -159.22265625 79.55078125 C-159.03896484 78.70322266 -158.85527344 77.85566406 -158.66601562 76.98242188 C-158.36727539 75.66081055 -158.36727539 75.66081055 -158.0625 74.3125 C-157.86720703 73.41982422 -157.67191406 72.52714844 -157.47070312 71.60742188 C-156.98744798 69.40330694 -156.49697166 67.2010555 -156 65 C-156.33 65.33 -156.66 65.66 -157 66 C-159.33297433 66.04092937 -161.66705225 66.04241723 -164 66 C-164.33 67.98 -164.66 69.96 -165 72 C-163.02 72 -161.04 72 -159 72 C-159.36090476 78.18516086 -159.721837 83.6456671 -163 89 C-174.20119109 95.91137323 -192.36025601 95.55889458 -205.0625 93.375 C-213.46177417 91.02451819 -221.67827084 84.2905352 -226.28515625 76.953125 C-231.14502759 67.68627355 -230.70637822 58.89561403 -228.046875 48.97265625 C-224.57862372 39.12437555 -217.99259257 33.52648681 -208.796875 29.10546875 C-195.91699919 24.01467985 -179.52274133 24.47305877 -166.625 29.25 C-163.38737205 31.40841863 -161.3775296 33.93423815 -159 37 C-158.29875 37.66 -157.5975 38.32 -156.875 39 C-154.59878211 41.42796575 -153.43609174 44.01422735 -152 47 C-151.58427734 45.06833984 -151.58427734 45.06833984 -151.16015625 43.09765625 C-150.79446528 41.41922846 -150.42856928 39.74084532 -150.0625 38.0625 C-149.88009766 37.21236328 -149.69769531 36.36222656 -149.50976562 35.48632812 C-149.33251953 34.67744141 -149.15527344 33.86855469 -148.97265625 33.03515625 C-148.72914429 31.91185913 -148.72914429 31.91185913 -148.48071289 30.76586914 C-148 29 -148 29 -147 28 C-145.29227642 27.91286169 -143.58101351 27.89299993 -141.87109375 27.90234375 C-140.31938477 27.90717773 -140.31938477 27.90717773 -138.73632812 27.91210938 C-137.64771484 27.92048828 -136.55910156 27.92886719 -135.4375 27.9375 C-133.7987793 27.94426758 -133.7987793 27.94426758 -132.12695312 27.95117188 C-129.41791505 27.96300174 -126.70898401 27.97948457 -124 28 C-123.505 30.97 -123.505 30.97 -123 34 C-118.34101198 32.01745191 -113.71636823 29.97659503 -109.11328125 27.8671875 C-102.42814678 25.12393454 -95.70251905 25.26934409 -89 28 C-87.1521347 29.87829327 -85.6320615 31.92232444 -84 34 C-83.03578125 33.50628906 -82.0715625 33.01257812 -81.078125 32.50390625 C-79.80219148 31.85655763 -78.52614379 31.20943401 -77.25 30.5625 C-76.29867187 30.07426758 -76.29867187 30.07426758 -75.328125 29.57617188 C-68.37349855 26.06263664 -63.14671558 25.21355394 -55.375 26.6875 C-51.549456 28.17521155 -49.59734679 29.85170086 -47 33 C-47 33.66 -47 34.32 -47 35 C-46.401875 35.2475 -45.80375 35.495 -45.1875 35.75 C-42.59177736 37.23327008 -41.55656815 38.4493211 -40 41 C-37.95286067 52.54927773 -41.82395137 64.63134524 -44.54101562 75.77026367 C-45.10080982 78.11031753 -45.10080982 78.11031753 -45 81 C-38.94705533 72.38619413 -34.3626346 62.81857251 -29.44287109 53.5324707 C-22.76521802 40.93207437 -15.9472333 28.4311635 -8.8671875 16.05078125 C-5.83440198 10.74183248 -2.91438535 5.37474925 0 0 Z M-116 40 C-115 42 -115 42 -115 42 Z M-186 44 C-189.61436939 47.50028135 -189.61436939 47.50028135 -191 52 C-189.02 52 -187.04 52 -185 52 C-185 49.36 -185 46.72 -185 44 C-185.33 44 -185.66 44 -186 44 Z M-195 66 C-196.17571451 69.67410785 -196.07366746 73.16929183 -196 77 C-190.98301691 73.36621689 -190.98301691 73.36621689 -188.0625 68.125 C-188.041875 67.42375 -188.02125 66.7225 -188 66 C-190.31 66 -192.62 66 -195 66 Z " fill="#0297B2" transform="translate(289,4)"/>
<path d="M0 0 C4.29 0 8.58 0 13 0 C12.67 1.65 12.34 3.3 12 5 C14.31 5.33 16.62 5.66 19 6 C18.43215559 9.47999362 17.57571003 12.14781041 15.83984375 15.2109375 C15.38383789 16.02820313 14.92783203 16.84546875 14.45800781 17.6875 C13.95624023 18.574375 13.45447266 19.46125 12.9375 20.375 C6.97782157 31.08408371 1.34323551 41.94012103 -4.21508789 52.86083984 C-7.73311768 59.74963435 -11.38872699 66.52330041 -15.26216125 73.21916199 C-17.64894674 77.35260078 -19.85259036 81.52003898 -21.9375 85.8125 C-24.90692641 91.90692641 -24.90692641 91.90692641 -26 93 C-28.35313555 93.07271741 -30.70833668 93.08370868 -33.0625 93.0625 C-34.99802734 93.04896484 -34.99802734 93.04896484 -36.97265625 93.03515625 C-37.97167969 93.02355469 -38.97070312 93.01195313 -40 93 C-39.67 91.35 -39.34 89.7 -39 88 C-41.31 87.67 -43.62 87.34 -46 87 C-46.99 88.98 -47.98 90.96 -49 93 C-57.91 93 -66.82 93 -76 93 C-75.67 91.02 -75.34 89.04 -75 87 C-77.31 87 -79.62 87 -82 87 C-81.505 86.01 -81.505 86.01 -81 85 C-68.13 85.495 -68.13 85.495 -55 86 C-54.01 80.06 -54.01 80.06 -53 74 C-52.51862108 71.60761024 -52.01951703 69.21862044 -51.4921875 66.8359375 C-51.22792969 65.61132812 -50.96367187 64.38671875 -50.69140625 63.125 C-50.14515653 60.61591037 -49.5930281 58.10809368 -49.03515625 55.6015625 C-47.54099585 48.62390702 -46.57095426 42.14039898 -47 35 C-43.67217917 36.56474548 -41.86208365 37.7470307 -40 41 C-37.95286067 52.54927773 -41.82395137 64.63134524 -44.54101562 75.77026367 C-45.10080982 78.11031753 -45.10080982 78.11031753 -45 81 C-38.94705533 72.38619413 -34.3626346 62.81857251 -29.44287109 53.5324707 C-22.76521802 40.93207437 -15.9472333 28.4311635 -8.8671875 16.05078125 C-5.83440198 10.74183248 -2.91438535 5.37474925 0 0 Z " fill="#0699B3" transform="translate(289,4)"/>
<path d="M0 0 C-1.875 3.875 -1.875 3.875 -3 5 C-0.03 5.33 2.94 5.66 6 6 C4.00030069 9.99939862 1.81943796 12.29056635 -1.4375 15.1875 C-2.23124023 15.90498413 -2.23124023 15.90498413 -3.04101562 16.63696289 C-7.44782637 20.58724166 -11.99486225 24.34114777 -16.625 28.02734375 C-20.01811276 30.80720133 -20.01811276 30.80720133 -23 34 C-22.40943454 38.42643941 -19.61090044 41.33454365 -16.875 44.6875 C-15.8762823 45.9361821 -14.87758441 47.18488003 -13.87890625 48.43359375 C-12.91962088 49.62267832 -11.96000795 50.81149873 -11 52 C-9.5989976 53.74586453 -8.20215842 55.49509255 -6.8125 57.25 C-6.26207031 57.93578125 -5.71164063 58.6215625 -5.14453125 59.328125 C-4 61 -4 61 -4 63 C-18.42246103 64.5058254 -18.42246103 64.5058254 -23.96875 61.265625 C-26.59146712 58.65993851 -28.78678143 55.96207979 -31 53 C-31.92922868 51.84153721 -32.86300765 50.68671287 -33.80078125 49.53515625 C-36.16859706 46.60306096 -38.4685269 43.62550258 -40.75 40.62597656 C-43.0567431 37.62540839 -45.46195873 34.70116062 -47.85546875 31.76953125 C-49 30 -49 30 -49 27 C-46.69921875 24.7734375 -46.69921875 24.7734375 -43.6875 22.375 C-42.70136719 21.57835938 -41.71523438 20.78171875 -40.69921875 19.9609375 C-38 18 -38 18 -35 17 C-35 16.34 -35 15.68 -35 15 C-30.52941176 11 -30.52941176 11 -28 11 C-28 10.34 -28 9.68 -28 9 C-19.36420975 -0.06103749 -12.03745042 -1.23735214 0 0 Z " fill="#0496B0" transform="translate(59,19)"/>
<path d="M0 0 C0.71671875 -0.04576172 1.4334375 -0.09152344 2.171875 -0.13867188 C4.34441329 -0.1845987 6.14558528 -0.11378658 8.25 0.4375 C10.26893938 2.46519201 11.652606 4.14723978 13.25 6.4375 C14.91411239 8.10671703 16.5806773 9.77349361 18.25 11.4375 C20.49460152 14.06712441 22.6543496 16.75452753 24.8203125 19.44921875 C26.47028892 21.47853058 28.15415835 23.48065582 29.8671875 25.45703125 C30.69476563 26.41996094 31.52234375 27.38289063 32.375 28.375 C33.14070313 29.25027344 33.90640625 30.12554687 34.6953125 31.02734375 C36.25 33.4375 36.25 33.4375 36.02978516 35.41015625 C35.13205357 37.74414596 34.23264041 38.68641948 32.328125 40.28515625 C31.7206543 40.80295654 31.11318359 41.32075684 30.48730469 41.85424805 C29.83149414 42.39734619 29.17568359 42.94044434 28.5 43.5 C27.49694824 44.34848511 27.49694824 44.34848511 26.47363281 45.21411133 C25.08848173 46.38448875 23.70009347 47.55104503 22.30859375 48.71386719 C20.35173483 50.3523188 18.40790056 52.00471538 16.46875 53.6640625 C4.71711773 63.70016342 4.71711773 63.70016342 0.23828125 63.6328125 C-0.51904297 63.62636719 -1.27636719 63.61992188 -2.05664062 63.61328125 C-2.84232422 63.59652344 -3.62800781 63.57976562 -4.4375 63.5625 C-5.23478516 63.55347656 -6.03207031 63.54445312 -6.85351562 63.53515625 C-8.819139 63.51161585 -10.78460775 63.47574547 -12.75 63.4375 C-11.76 61.7875 -10.77 60.1375 -9.75 58.4375 C-12.72 58.1075 -15.69 57.7775 -18.75 57.4375 C-10.18375362 46.72969202 0.67581106 38.08058706 11.25 29.4375 C7.1293137 22.76849454 2.36185948 16.71111695 -2.61035156 10.66772461 C-3.1153418 10.04905518 -3.62033203 9.43038574 -4.140625 8.79296875 C-4.59469727 8.24278076 -5.04876953 7.69259277 -5.51660156 7.12573242 C-6.84044015 5.3137087 -7.80108249 3.46737517 -8.75 1.4375 C-6.70115632 -0.61134368 -2.79472441 0.0713442 0 0 Z " fill="#0196B1" transform="translate(315.75,18.5625)"/>
<path d="M0 0 C1 3 1 3 -0.04125977 5.48242188 C-0.58580811 6.46791016 -1.13035645 7.45339844 -1.69140625 8.46875 C-2.29976318 9.58427246 -2.90812012 10.69979492 -3.53491211 11.84912109 C-4.21076719 13.06608492 -4.88663001 14.28304445 -5.5625 15.5 C-6.95485189 18.04191302 -8.34030235 20.58757348 -9.7265625 23.1328125 C-10.08231857 23.78359772 -10.43807465 24.43438293 -10.80461121 25.10488892 C-14.46003209 31.80522758 -17.95219423 38.58482794 -21.4375 45.375 C-25.53427267 53.3323891 -29.72628151 61.1847305 -34.25 68.90625 C-36.91557516 73.61860609 -39.28150104 78.46613311 -41.65234375 83.33203125 C-43 86 -43 86 -44 87 C-46.35313555 87.07271741 -48.70833668 87.08370868 -51.0625 87.0625 C-52.99802734 87.04896484 -52.99802734 87.04896484 -54.97265625 87.03515625 C-55.97167969 87.02355469 -56.97070312 87.01195313 -58 87 C-57.67 85.35 -57.34 83.7 -57 82 C-59.31 81.67 -61.62 81.34 -64 81 C-64 80.67 -64 80.34 -64 80 C-59.38 80 -54.76 80 -50 80 C-49.34 78.02 -48.68 76.04 -48 74 C-47.09561983 72.13965649 -46.14481433 70.30138409 -45.15625 68.484375 C-44.5780249 67.41437256 -43.9997998 66.34437012 -43.40405273 65.24194336 C-42.77571533 64.08960205 -42.14737793 62.93726074 -41.5 61.75 C-40.14494134 59.24727799 -38.79335192 56.7426859 -37.44140625 54.23828125 C-37.08635513 53.58167007 -36.73130402 52.9250589 -36.36549377 52.24855042 C-31.61387233 43.45235598 -26.95691475 34.6058845 -22.29052734 25.76428223 C-21.92008301 25.06250854 -21.54963867 24.36073486 -21.16796875 23.63769531 C-20.80558105 22.95099258 -20.44319336 22.26428986 -20.06982422 21.55677795 C-19.02496598 19.58191451 -17.97359918 17.61061732 -16.921875 15.6394043 C-15.68128568 13.30899492 -14.48813669 10.97012687 -13.3125 8.60473633 C-12.80589844 7.60595459 -12.29929687 6.60717285 -11.77734375 5.578125 C-11.35316162 4.71477539 -10.92897949 3.85142578 -10.49194336 2.96191406 C-9 1 -9 1 -6.53686523 0.11889648 C-4.28297797 -0.16743093 -2.25819142 -0.21578274 0 0 Z " fill="#989A9B" transform="translate(307,10)"/>
<path d="M0 0 C0.3125 2.6875 0.3125 2.6875 0 6 C-0.78600586 6.70874268 -1.57201172 7.41748535 -2.38183594 8.14770508 C-5.82351187 11.89715491 -6.33063441 15.04454259 -7.203125 19.94921875 C-7.45530792 21.22996025 -7.45530792 21.22996025 -7.71258545 22.53657532 C-8.24323898 25.2504097 -8.74733751 27.96835592 -9.25 30.6875 C-9.77259776 33.41600787 -10.30052497 36.1434296 -10.83026123 38.87055969 C-11.15731234 40.56450363 -11.47913369 42.25946727 -11.79522705 43.95549011 C-12.89309347 49.78618695 -12.89309347 49.78618695 -14 52 C-23.24 52 -32.48 52 -42 52 C-42 50.02 -42 48.04 -42 46 C-43.98 46 -45.96 46 -48 46 C-49.30211046 42.09366863 -48.47812346 39.80461827 -47.5625 35.8125 C-47.13130859 33.90404297 -47.13130859 33.90404297 -46.69140625 31.95703125 C-46.46324219 30.98121094 -46.23507813 30.00539063 -46 29 C-45.34 29 -44.68 29 -44 29 C-44.31045732 30.9169986 -44.62344671 32.83358723 -44.9375 34.75 C-45.11152344 35.81734375 -45.28554687 36.8846875 -45.46484375 37.984375 C-45.88312803 40.34142219 -46.41940025 42.677601 -47 45 C-38.09 45 -29.18 45 -20 45 C-19.67 42.36 -19.34 39.72 -19 37 C-18.78607762 35.66993242 -18.55972485 34.34162499 -18.30737305 33.01831055 C-18.18021408 32.3478923 -18.05305511 31.67747406 -17.92204285 30.98674011 C-17.33876193 28.00153305 -16.75140944 25.01724004 -16.15356445 22.03491211 C-15.8413456 20.46236929 -15.53606763 18.88843338 -15.23754883 17.31323242 C-14.80293609 15.02183238 -14.34726713 12.73552882 -13.88671875 10.44921875 C-13.75738449 9.74609055 -13.62805023 9.04296234 -13.49479675 8.31852722 C-12.85448269 5.25015998 -12.32344697 3.32278981 -10.07739258 1.08129883 C-6.77144718 -0.6394712 -3.44034158 -1.72017079 0 0 Z " fill="#959B9D" transform="translate(178,45)"/>
<path d="M0 0 C2.56506424 -0.16276553 5.11975422 -0.28113984 7.6875 -0.375 C8.7693457 -0.45041016 8.7693457 -0.45041016 9.87304688 -0.52734375 C12.05707767 -0.58718021 13.87855958 -0.53295924 16 0 C18.02717234 2.03009755 19.40294727 3.70271426 21 6 C22.66411239 7.66921703 24.3306773 9.33599361 26 11 C28.24460152 13.62962441 30.4043496 16.31702753 32.5703125 19.01171875 C34.22028892 21.04103058 35.90415835 23.04315582 37.6171875 25.01953125 C38.44476563 25.98246094 39.27234375 26.94539063 40.125 27.9375 C40.89070313 28.81277344 41.65640625 29.68804687 42.4453125 30.58984375 C44 33 44 33 43.77978516 34.97265625 C42.88205357 37.30664596 41.98264041 38.24891948 40.078125 39.84765625 C39.4706543 40.36545654 38.86318359 40.88325684 38.23730469 41.41674805 C37.58149414 41.95984619 36.92568359 42.50294434 36.25 43.0625 C35.24694824 43.91098511 35.24694824 43.91098511 34.22363281 44.77661133 C32.83848173 45.94698875 31.45009347 47.11354503 30.05859375 48.27636719 C28.10173483 49.9148188 26.15790056 51.56721538 24.21875 53.2265625 C12.46711773 63.26266342 12.46711773 63.26266342 7.98828125 63.1953125 C7.23095703 63.18886719 6.47363281 63.18242188 5.69335938 63.17578125 C4.90767578 63.15902344 4.12199219 63.14226562 3.3125 63.125 C2.51521484 63.11597656 1.71792969 63.10695312 0.89648438 63.09765625 C-1.069139 63.07411585 -3.03460775 63.03824547 -5 63 C-4.01 61.35 -3.02 59.7 -2 58 C-4.97 57.67 -7.94 57.34 -11 57 C-11 56.67 -11 56.34 -11 56 C-9.94683594 56.07863281 -8.89367187 56.15726563 -7.80859375 56.23828125 C1.3087599 56.53630355 7.08026075 55.300786 13.875 49 C15.70896446 47.24834429 17.51377662 45.47478884 19.29833984 43.67285156 C21.79360446 41.21983102 24.4585263 39.06540803 27.1875 36.875 C28.44626953 35.85019531 28.44626953 35.85019531 29.73046875 34.8046875 C31.79367455 33.16406602 33.88143899 31.56822217 36 30 C34.5337469 25.43173167 31.92850921 22.23453013 28.8125 18.6875 C28.07809692 17.83418091 28.07809692 17.83418091 27.32885742 16.96362305 C23.98787505 13.09098344 20.59589122 9.26295363 17.14453125 5.48828125 C16 4 16 4 16 2 C10.39 2 4.78 2 -1 2 C-0.67 1.34 -0.34 0.68 0 0 Z " fill="#979B9C" transform="translate(308,19)"/>
<path d="M0 0 C1 1 1 1 1.375 3.875 C1.189375 5.421875 1.189375 5.421875 1 7 C-0.19665283 7.66261841 -0.19665283 7.66261841 -1.41748047 8.33862305 C-4.19863736 9.78014546 -4.19863736 9.78014546 -5.07080078 12.59692383 C-5.27688965 13.62325928 -5.48297852 14.64959473 -5.6953125 15.70703125 C-6.05459839 17.41463623 -6.05459839 17.41463623 -6.42114258 19.15673828 C-6.65341553 20.36313965 -6.88568848 21.56954102 -7.125 22.8125 C-7.37725342 24.03179199 -7.62950684 25.25108398 -7.8894043 26.50732422 C-8.61022207 30.00164741 -9.30653296 33.50016673 -10 37 C-10.59286828 39.87758019 -11.20076473 42.75133627 -11.8125 45.625 C-12.02519531 46.66914062 -12.23789063 47.71328125 -12.45703125 48.7890625 C-13 51 -13 51 -14 52 C-15.85369611 52.08737645 -17.71067541 52.10698153 -19.56640625 52.09765625 C-20.69111328 52.09443359 -21.81582031 52.09121094 -22.97460938 52.08789062 C-24.15861328 52.07951172 -25.34261719 52.07113281 -26.5625 52.0625 C-27.75037109 52.05798828 -28.93824219 52.05347656 -30.16210938 52.04882812 C-33.10812226 52.03699675 -36.05403681 52.02051287 -39 52 C-39 50.02 -39 48.04 -39 46 C-40.98 46 -42.96 46 -45 46 C-45.33 44.68 -45.66 43.36 -46 42 C-45.34 42 -44.68 42 -44 42 C-44 42.99 -44 43.98 -44 45 C-36.08 45 -28.16 45 -20 45 C-19.4225 41.57625 -18.845 38.1525 -18.25 34.625 C-16.92763236 27.00286857 -15.573119 19.38730632 -14 11.8125 C-13.85852539 11.07789551 -13.71705078 10.34329102 -13.57128906 9.58642578 C-11.69617889 0.90224486 -8.20675812 -0.67268509 0 0 Z " fill="#969B9C" transform="translate(215,45)"/>
<path d="M0 0 C3.32782083 1.56474548 5.13791635 2.7470307 7 6 C8.72224544 15.71633471 6.05487483 25.51310696 3.77929688 34.9152832 C2.8025249 38.99316707 1.98672035 42.47711366 2.09375 46.69140625 C2 50 2 50 -2 58 C-10.91 58 -19.82 58 -29 58 C-28.505 55.03 -28.505 55.03 -28 52 C-30.31 52 -32.62 52 -35 52 C-34.67 51.34 -34.34 50.68 -34 50 C-21.13 50.495 -21.13 50.495 -8 51 C-7.34 47.04 -6.68 43.08 -6 39 C-5.51862108 36.60761024 -5.01951703 34.21862044 -4.4921875 31.8359375 C-4.22792969 30.61132812 -3.96367187 29.38671875 -3.69140625 28.125 C-3.14515653 25.61591037 -2.5930281 23.10809368 -2.03515625 20.6015625 C-0.54099585 13.62390702 0.42904574 7.14039898 0 0 Z " fill="#979A9B" transform="translate(242,39)"/>
<path d="M0 0 C2.54955397 0.97856324 3.76272249 1.57605311 5.1171875 3.99609375 C7.34327812 11.16777743 7.43581387 18.12837226 4 25 C3.34 25 2.68 25 2 25 C2 25.66 2 26.32 2 27 C-4.34189721 28.13505547 -10.56906156 28.14858535 -17 28.125 C-18.58167969 28.13080078 -18.58167969 28.13080078 -20.1953125 28.13671875 C-25.57096435 28.12998234 -30.70544744 27.94760458 -36 27 C-36 30.96 -36 34.92 -36 39 C-41 38 -41 38 -43 36 C-43.23046875 32.8125 -43.23046875 32.8125 -43.1875 29 C-43.18105469 27.741875 -43.17460938 26.48375 -43.16796875 25.1875 C-43 22 -43 22 -42 20 C-29.46 19.67 -16.92 19.34 -4 19 C-1.41251617 11.64547685 -1.41251617 11.64547685 -0.3125 4.4375 C-0.24675781 3.59058594 -0.18101562 2.74367187 -0.11328125 1.87109375 C-0.07589844 1.25363281 -0.03851563 0.63617188 0 0 Z " fill="#949D9E" transform="translate(130,43)"/>
<path d="M0 0 C2.31 0 4.62 0 7 0 C6.63909524 6.18516086 6.278163 11.6456671 3 17 C-8.20119109 23.91137323 -26.36025601 23.55889458 -39.0625 21.375 C-43.86584928 20.04337842 -48.36392014 17.39259237 -52 14 C-52.75 11.8046875 -52.75 11.8046875 -53 10 C-52.41992188 10.20496094 -51.83984375 10.40992187 -51.2421875 10.62109375 C-50.46101563 10.89050781 -49.67984375 11.15992187 -48.875 11.4375 C-48.10929687 11.70433594 -47.34359375 11.97117187 -46.5546875 12.24609375 C-32.84992498 16.29046556 -15.81885536 15.40942768 -3 9 C-2.09274566 6.88672575 -2.09274566 6.88672575 -1.375 4.4375 C-1.11460938 3.61121094 -0.85421875 2.78492187 -0.5859375 1.93359375 C-0.39257812 1.29550781 -0.19921875 0.65742187 0 0 Z " fill="#979B9C" transform="translate(123,76)"/>
<path d="M0 0 C-1.56326815 3.96829606 -4.32104969 6.41590681 -7.4375 9.1875 C-7.96811035 9.66654785 -8.4987207 10.1455957 -9.04541016 10.63916016 C-13.44609204 14.5803226 -17.97546283 18.35318059 -22.5859375 22.046875 C-24.61459335 23.68818232 -26.55809506 25.38398178 -28.5 27.125 C-29.325 27.74375 -30.15 28.3625 -31 29 C-34.39914975 27.86695008 -35.05254451 26.87481525 -37 24 C-35.48601922 20.18511059 -33.27002932 18.36923371 -30.0625 15.875 C-24.93706357 11.8257707 -20.2680504 7.53963186 -15.60546875 2.96875 C-10.87488202 -0.6057863 -5.7366956 -0.11473391 0 0 Z " fill="#929697" transform="translate(65,25)"/>
<path d="M0 0 C0 0.66 0 1.32 0 2 C-1.09957031 1.95617187 -2.19914062 1.91234375 -3.33203125 1.8671875 C-11.16215957 1.78908148 -16.89806286 1.87976507 -22.875 7.5 C-24.59131313 9.32586503 -26.29965292 11.15925729 -28 13 C-29.88901938 14.61621822 -31.80562302 16.2008216 -33.75 17.75 C-37.89657834 21.09938825 -41.97202857 24.50909143 -46 28 C-45.50851215 32.32927595 -42.70716523 34.9993994 -39.9375 38.125 C-38.93627294 39.27758105 -37.93628474 40.43123937 -36.9375 41.5859375 C-36.44121094 42.15795898 -35.94492187 42.72998047 -35.43359375 43.31933594 C-32.70377965 46.51961527 -30.13646983 49.84904096 -27.55859375 53.171875 C-26.11633405 55.10453873 -26.11633405 55.10453873 -24 56 C-20.40202648 56.16606032 -16.81043005 56.2969656 -13.20898438 56.34179688 C-7.47299486 56.55424093 -7.47299486 56.55424093 -4.96484375 58.91796875 C-4 61 -4 61 -4 63 C-18.42246103 64.5058254 -18.42246103 64.5058254 -23.96875 61.265625 C-26.59146712 58.65993851 -28.78678143 55.96207979 -31 53 C-31.92922868 51.84153721 -32.86300765 50.68671287 -33.80078125 49.53515625 C-36.16859706 46.60306096 -38.4685269 43.62550258 -40.75 40.62597656 C-43.0567431 37.62540839 -45.46195873 34.70116062 -47.85546875 31.76953125 C-49 30 -49 30 -49 27 C-46.69921875 24.7734375 -46.69921875 24.7734375 -43.6875 22.375 C-42.70136719 21.57835938 -41.71523438 20.78171875 -40.69921875 19.9609375 C-38 18 -38 18 -35 17 C-35 16.34 -35 15.68 -35 15 C-30.52941176 11 -30.52941176 11 -28 11 C-28 10.34 -28 9.68 -28 9 C-19.36420975 -0.06103749 -12.03745042 -1.23735214 0 0 Z " fill="#63C2D1" transform="translate(59,19)"/>
<path d="M0 0 C-0.33 0.66 -0.66 1.32 -1 2 C-1.55091309 1.83918945 -2.10182617 1.67837891 -2.66943359 1.51269531 C-7.24286592 0.50659769 -11.96092702 0.772559 -16.625 0.75 C-18.18927734 0.7190625 -18.18927734 0.7190625 -19.78515625 0.6875 C-31.18060234 0.6305939 -42.2371746 3.39896468 -50.6328125 11.59375 C-57.04360012 19.73199536 -57.93327336 30.00246895 -57 40 C-55.82449796 45.66792458 -53.29935083 49.28164252 -49 53 C-49.33 53.99 -49.66 54.98 -50 56 C-56.72904761 49.40000262 -59.46928042 43.48410236 -60.375 34.125 C-59.85696084 23.44044229 -56.32350373 14.32350373 -48.75 6.75 C-33.57716728 -2.905439 -17.36934378 -3.89853007 0 0 Z " fill="#53B9CB" transform="translate(119,32)"/>
<path d="M0 0 C2.375 0.6875 2.375 0.6875 3.375 1.6875 C3.75 4.4375 3.75 4.4375 3.375 7.6875 C1 10.375 1 10.375 -1.625 12.6875 C-2.615 14.1725 -2.615 14.1725 -3.625 15.6875 C-2.305 16.0175 -0.985 16.3475 0.375 16.6875 C-3.585 16.6875 -7.545 16.6875 -11.625 16.6875 C-11.24841412 10.662126 -9.39669831 6.42937504 -5.625 1.6875 C-2.625 -0.3125 -2.625 -0.3125 0 0 Z " fill="#909798" transform="translate(101.625,40.3125)"/>
<path d="M0 0 C1.17175781 -0.04350586 1.17175781 -0.04350586 2.3671875 -0.08789062 C8.12508883 -0.15197686 8.12508883 -0.15197686 10.6640625 2.20703125 C11.625 4.3125 11.625 4.3125 11.625 6.3125 C8.87335568 6.44767903 6.12835479 6.54665251 3.375 6.625 C2.20904297 6.6878418 2.20904297 6.6878418 1.01953125 6.75195312 C-1.21851137 6.79977455 -3.18459674 6.78226923 -5.375 6.3125 C-7.921875 3.79296875 -7.921875 3.79296875 -9.375 1.3125 C-7.26472389 -0.79777611 -2.90071663 0.035548 0 0 Z " fill="#979898" transform="translate(43.375,75.6875)"/>
<path d="M0 0 C2.56506424 -0.16276553 5.11975422 -0.28113984 7.6875 -0.375 C8.7693457 -0.45041016 8.7693457 -0.45041016 9.87304688 -0.52734375 C12.05707767 -0.58718021 13.87855958 -0.53295924 16 0 C18.02704304 2.02996807 19.40322506 3.70266236 21 6 C22.66410059 7.66922879 24.33068993 9.33598093 26 11 C31.26307948 17.12347856 36.23698206 23.48120289 41 30 C35.97189102 28.62540906 33.70224696 25.53706072 30.75 21.5 C26.60784199 16.00924888 22.31053468 10.89240446 17.58203125 5.890625 C16 4 16 4 16 2 C10.39 2 4.78 2 -1 2 C-0.67 1.34 -0.34 0.68 0 0 Z " fill="#6DADB8" transform="translate(308,19)"/>
<path d="M0 0 C0.66 0.99 1.32 1.98 2 3 C1.13890625 2.67902344 0.2778125 2.35804687 -0.609375 2.02734375 C-8.0220799 -0.21867168 -15.565593 -0.12894167 -22.5625 3.3125 C-24.90972617 4.63058822 -26.9851943 5.98818312 -29.08984375 7.66796875 C-31 9 -31 9 -34 9 C-34.33 7.35 -34.66 5.7 -35 4 C-34.43925781 4.38671875 -33.87851563 4.7734375 -33.30078125 5.171875 C-30.97093869 6.31118936 -30.97093869 6.31118936 -28.66796875 4.953125 C-27.84941406 4.39109375 -27.03085938 3.8290625 -26.1875 3.25 C-17.63352583 -2.24360805 -9.70005711 -3.61374677 0 0 Z " fill="#4BB5C7" transform="translate(237,32)"/>
<path d="M0 0 C1.4375 2.125 1.4375 2.125 2 4 C1.31035156 3.51660156 0.62070313 3.03320312 -0.08984375 2.53515625 C-5.44385843 -0.28917633 -11.11751339 0.21525651 -17 1 C-21.27090615 2.60158981 -25.05685344 4.73166234 -29 7 C-30.65447179 7.69638015 -32.31786661 8.3733825 -34 9 C-34.33 7.68 -34.66 6.36 -35 5 C-33.989375 4.9175 -32.97875 4.835 -31.9375 4.75 C-28.29457732 4.24424212 -25.84817428 2.89006234 -22.75 0.98828125 C-15.55280401 -3.07620666 -7.54222061 -2.95773357 0 0 Z " fill="#44AFC2" transform="translate(200,32)"/>
<path d="M0 0 C0.99 0.33 1.98 0.66 3 1 C2.52449439 2.48034764 2.04448784 3.95925021 1.5625 5.4375 C1.29566406 6.26121094 1.02882812 7.08492188 0.75390625 7.93359375 C0 10 0 10 -1 11 C-2.99964982 11.08758003 -5.0023611 11.10696576 -7.00390625 11.09765625 C-8.21884766 11.09443359 -9.43378906 11.09121094 -10.68554688 11.08789062 C-11.96494141 11.07951172 -13.24433594 11.07113281 -14.5625 11.0625 C-15.84576172 11.05798828 -17.12902344 11.05347656 -18.45117188 11.04882812 C-21.63416022 11.03699545 -24.81705762 11.02051068 -28 11 C-28 10.67 -28 10.34 -28 10 C-19.42 9.67 -10.84 9.34 -2 9 C-1.34 6.03 -0.68 3.06 0 0 Z " fill="#ABAEAF" transform="translate(241,86)"/>
<path d="M0 0 C-1 3 -1 3 -3.3125 5.1875 C-7.89861094 9.98691843 -10.10531358 15.68437859 -12 22 C-13.54742064 17.56134605 -12.15340399 14.78984017 -10.3828125 10.6171875 C-8.3873243 6.84041605 -4.72958792 0 0 0 Z " fill="#42B2CA" transform="translate(73,38)"/>
<path d="M0 0 C0 0.66 0 1.32 0 2 C-0.79664063 2.38091797 -0.79664063 2.38091797 -1.609375 2.76953125 C-4.6933385 4.27211931 -7.56950141 5.67421728 -10.3125 7.75 C-12 9 -12 9 -15 9 C-15.33 7.35 -15.66 5.7 -16 4 C-15.44570312 4.38929687 -14.89140625 4.77859375 -14.3203125 5.1796875 C-11.94327725 6.31942803 -11.94327725 6.31942803 -9.4921875 4.8828125 C-8.62851563 4.30273438 -7.76484375 3.72265625 -6.875 3.125 C-2.15246637 0 -2.15246637 0 0 0 Z " fill="#3DA5B9" transform="translate(218,32)"/>
</svg>
