<svg xmlns="http://www.w3.org/2000/svg" width="268" height="143" viewBox="0 0 268 143" version="1.1"><path d="M 8 67 L 8 127 18.500 127 C 28.333 127, 29 126.873, 29 125 C 29 123.157, 28.333 123, 20.500 123 L 12 123 12 67 L 12 11 133.500 11 L 255 11 255 67 L 255 123 246.500 123 C 238.667 123, 238 123.157, 238 125 C 238 126.873, 238.667 127, 248.500 127 L 259 127 259 67 L 259 7 133.500 7 L 8 7 8 67 M 187.659 32.750 C 187.025 33.784, 175 80.430, 175 81.853 C 175 83.181, 176.924 83.335, 178.783 82.155 C 179.954 81.412, 192 37.096, 192 33.532 C 192 31.984, 188.513 31.356, 187.659 32.750 M 44.101 51.283 C 30.139 57.761, 27.694 59.695, 29.606 62.750 C 30.791 64.643, 56.374 76.912, 59.250 76.967 C 60.521 76.991, 61 76.208, 61 74.107 C 61 71.480, 60.202 70.806, 52.302 66.762 C 47.518 64.314, 43.437 61.810, 43.233 61.200 C 43.030 60.589, 46.944 58.039, 51.931 55.534 C 60.319 51.322, 61 50.755, 61 47.990 C 61 45.796, 60.534 45.009, 59.250 45.033 C 58.288 45.052, 51.470 47.864, 44.101 51.283 M 90.491 46.865 C 77.301 52.857, 73.713 71.314, 84.723 76.539 C 89.117 78.624, 95.518 77.961, 101.059 74.847 C 105.222 72.507, 106.663 70.263, 105.043 68.643 C 104.346 67.946, 102.725 68.348, 99.956 69.905 C 95.213 72.570, 91.355 72.107, 90.074 68.720 C 88.938 65.716, 89.554 65.004, 93.309 64.978 C 100.438 64.929, 108 59.386, 108 54.210 C 108 52.240, 108.360 51.976, 110.250 52.557 C 111.487 52.937, 112.679 53.409, 112.898 53.606 C 113.117 53.802, 112.468 58.925, 111.457 64.990 C 110.306 71.891, 109.970 76.370, 110.560 76.960 C 111.730 78.130, 119.003 76.614, 120.007 74.989 C 120.399 74.354, 121.004 70.483, 121.350 66.387 C 122.076 57.803, 124.123 53, 127.057 53 C 130.133 53, 130.465 55.472, 128.790 65.903 C 127.043 76.779, 127.493 78.226, 132.337 77.330 C 137.207 76.430, 138.123 74.888, 139.129 65.894 C 140.131 56.936, 141.910 53, 144.956 53 C 147.899 53, 148.250 56.080, 146.485 66.441 C 145.592 71.680, 145.144 76.425, 145.490 76.984 C 146.853 79.189, 154.785 77.073, 158.290 73.567 C 160.550 71.307, 160.447 70.350, 157.868 69.676 C 156.200 69.240, 155.874 68.615, 156.372 66.809 C 156.721 65.539, 157.293 61.280, 157.643 57.343 C 158.244 50.566, 158.140 50.049, 155.684 47.593 C 152.462 44.371, 149.700 44.338, 144.242 47.459 L 139.984 49.893 137.537 47.447 C 134.476 44.385, 131.640 44.372, 126.357 47.394 L 122.213 49.763 121.098 47.317 C 119.873 44.627, 118.578 44.709, 111.880 47.897 C 108.334 49.585, 108.205 49.573, 105.574 47.310 C 102.245 44.446, 96.208 44.268, 90.491 46.865 M 206 47.990 C 206 50.755, 206.681 51.322, 215.069 55.534 C 220.299 58.161, 223.971 60.599, 223.745 61.294 C 223.529 61.958, 219.448 64.463, 214.676 66.863 C 206.786 70.831, 206 71.488, 206 74.113 C 206 76.209, 206.480 76.991, 207.750 76.967 C 210.626 76.912, 236.209 64.643, 237.394 62.750 C 238.189 61.481, 238.187 60.519, 237.389 59.250 C 236.214 57.383, 210.689 45.163, 207.750 45.061 C 206.460 45.016, 206 45.786, 206 47.990 M 92.625 51.862 C 90.004 54.758, 88.781 59.979, 90.562 60.662 C 92.566 61.431, 96.894 58.409, 98.017 55.456 C 99.889 50.532, 96.109 48.012, 92.625 51.862 M 41.200 118.200 C 38.749 120.651, 39.800 124.019, 43.500 125.564 C 45.922 126.576, 47 127.673, 47 129.123 C 47 130.931, 46.518 131.162, 43.483 130.808 C 41.308 130.554, 40.097 130.799, 40.310 131.449 C 40.499 132.027, 41.884 132.645, 43.388 132.822 C 49.662 133.562, 51.104 126.646, 45.214 124.054 C 40.925 122.167, 41.279 119.441, 45.786 119.647 C 49.169 119.803, 50.101 118.637, 47.418 117.607 C 44.944 116.658, 42.510 116.890, 41.200 118.200 M 65.667 117.667 C 65.300 118.033, 65 119.158, 65 120.167 C 65 121.175, 64.460 122, 63.800 122 C 62.867 122, 62.867 122.267, 63.800 123.200 C 64.460 123.860, 65 126.335, 65 128.700 C 65 131.065, 65.450 133, 66 133 C 66.550 133, 67 130.750, 67 128 C 67 123.943, 67.330 122.981, 68.750 122.900 C 69.874 122.836, 69.619 122.555, 68.036 122.114 L 65.573 121.427 67.786 119.214 C 69.795 117.205, 69.830 117, 68.167 117 C 67.158 117, 66.033 117.300, 65.667 117.667 M 140 119.500 C 140 121.571, 139.520 122, 137.200 122 C 133.548 122, 132 123.660, 132 127.578 C 132 131.596, 133.526 132.850, 138.250 132.712 L 142 132.604 142 124.802 C 142 120.267, 141.581 117, 141 117 C 140.450 117, 140 118.125, 140 119.500 M 180 125 C 180 129.667, 180.417 133, 181 133 C 181.583 133, 182 129.667, 182 125 C 182 120.333, 181.583 117, 181 117 C 180.417 117, 180 120.333, 180 125 M 72.500 120.259 C 71.950 121.492, 71.725 124.750, 72 127.500 C 72.424 131.741, 72.841 132.548, 74.750 132.820 C 75.987 132.995, 77 132.658, 77 132.070 C 77 131.481, 76.438 131.113, 75.750 131.250 C 73.653 131.669, 73.535 124.813, 75.612 123.294 C 77.161 122.162, 77.180 122, 75.761 122 C 74.869 122, 73.995 121.104, 73.820 120.009 C 73.517 118.124, 73.447 118.138, 72.500 120.259 M 51.852 124.426 C 50.257 127.927, 51.534 131.845, 54.513 132.593 C 57.856 133.432, 59.792 132.550, 61.151 129.569 C 62.063 127.566, 61.960 126.587, 60.619 124.541 C 58.342 121.066, 53.412 121.002, 51.852 124.426 M 79 122.822 C 79 124.734, 82.257 133, 83.011 133 C 83.463 133, 84.483 131.088, 85.276 128.750 L 86.719 124.500 88.018 128.750 C 88.732 131.088, 89.920 133, 90.658 133 C 91.396 133, 92.005 132.662, 92.011 132.250 C 92.017 131.838, 92.670 129.363, 93.463 126.750 C 95.251 120.857, 93.705 120.413, 91.724 126.250 L 90.281 130.500 88.974 126.222 C 87.485 121.351, 85.944 121.212, 84.620 125.828 C 83.435 129.961, 82.382 129.847, 81.566 125.500 C 81.205 123.575, 80.480 122, 79.955 122 C 79.430 122, 79 122.370, 79 122.822 M 97.536 122.941 C 97.216 123.459, 98.185 123.797, 99.688 123.691 C 101.585 123.559, 102.533 124.036, 102.784 125.250 C 103.051 126.539, 102.501 127, 100.696 127 C 97.808 127, 95.535 129.346, 96.354 131.481 C 96.753 132.520, 98.186 132.939, 100.966 132.830 L 105 132.672 105 128.536 C 105 126.261, 104.460 123.860, 103.800 123.200 C 102.373 121.773, 98.361 121.607, 97.536 122.941 M 108 127.662 C 108 130.598, 108.450 133, 109 133 C 109.550 133, 110 131.189, 110 128.975 C 110 125.602, 110.405 124.797, 112.500 124 C 115.975 122.679, 115.621 122.038, 111.500 122.192 L 108 122.324 108 127.662 M 117.035 123.934 C 113.958 129.685, 119.695 135.480, 125 131.980 C 126.140 131.228, 125.774 131.038, 123.471 131.191 C 119.926 131.426, 118 130.458, 118 128.441 C 118 127.427, 119.184 127, 122 127 C 124.615 127, 126 126.550, 126 125.700 C 126 121.913, 118.869 120.509, 117.035 123.934 M 145.333 124.615 C 143.798 126.958, 143.773 127.505, 145.091 129.865 C 146.718 132.778, 151.478 133.976, 153.372 131.949 C 154.242 131.018, 153.887 130.886, 151.822 131.372 C 150.030 131.793, 148.622 131.479, 147.563 130.420 C 145.385 128.243, 146.474 127, 150.559 127 C 154.133 127, 155.048 125.448, 152.800 123.200 C 150.746 121.146, 147.161 121.825, 145.333 124.615 M 157.173 126.750 C 159.323 131.705, 160.665 133.668, 161.400 132.933 C 161.638 132.695, 162.764 130.137, 163.902 127.250 C 166.346 121.048, 164.902 120.105, 162.255 126.174 L 160.435 130.349 159.058 126.174 C 158.300 123.878, 157.102 122, 156.396 122 C 155.460 122, 155.671 123.287, 157.173 126.750 M 168.035 123.934 C 164.958 129.685, 170.695 135.480, 176 131.980 C 177.140 131.228, 176.774 131.038, 174.471 131.191 C 170.926 131.426, 169 130.458, 169 128.441 C 169 127.427, 170.184 127, 173 127 C 175.615 127, 177 126.550, 177 125.700 C 177 121.913, 169.869 120.509, 168.035 123.934 M 185.381 124.541 C 184.040 126.587, 183.937 127.566, 184.849 129.569 C 186.208 132.550, 188.144 133.432, 191.487 132.593 C 194.466 131.845, 195.743 127.927, 194.148 124.426 C 192.588 121.002, 187.658 121.066, 185.381 124.541 M 197 129.662 C 197 133.887, 197.424 137, 198 137 C 198.550 137, 199 135.937, 199 134.639 C 199 132.658, 199.404 132.355, 201.506 132.756 C 204.913 133.408, 207 131.411, 207 127.500 C 207 123.403, 205.343 122.010, 200.676 122.186 L 197 122.324 197 129.662 M 210.200 123.200 C 208.501 124.899, 208.712 129.569, 210.571 131.429 C 212.409 133.266, 216.566 133.511, 217.597 131.842 C 218.080 131.061, 217.659 130.856, 216.298 131.212 C 213.812 131.862, 211 130.396, 211 128.450 C 211 127.425, 212.172 127, 215 127 C 219.341 127, 219.511 126.824, 217.965 123.934 C 216.792 121.742, 212.101 121.299, 210.200 123.200 M 221 127.662 C 221 130.598, 221.450 133, 222 133 C 222.550 133, 223 131.189, 223 128.975 C 223 125.602, 223.405 124.797, 225.500 124 C 228.975 122.679, 228.621 122.038, 224.500 122.192 L 221 122.324 221 127.662 M 54.200 124.200 C 52.585 125.815, 52.680 129.490, 54.373 130.895 C 57.500 133.490, 61.109 128.941, 59.020 125.038 C 57.790 122.739, 55.976 122.424, 54.200 124.200 M 119.036 124.457 C 117.927 125.793, 118.185 126, 120.961 126 C 123.081 126, 124.026 125.577, 123.750 124.750 C 123.126 122.873, 120.486 122.709, 119.036 124.457 M 135.229 124.171 C 133.605 125.795, 133.662 129.474, 135.332 130.861 C 137.502 132.662, 140.238 129.987, 139.836 126.459 C 139.474 123.287, 137.228 122.172, 135.229 124.171 M 147.701 123.632 C 146.295 125.038, 147.059 126, 149.583 126 C 151.205 126, 152.012 125.535, 151.750 124.750 C 151.269 123.304, 148.730 122.603, 147.701 123.632 M 170.036 124.457 C 168.927 125.793, 169.185 126, 171.961 126 C 174.081 126, 175.026 125.577, 174.750 124.750 C 174.126 122.873, 171.486 122.709, 170.036 124.457 M 186.980 125.038 C 184.891 128.941, 188.500 133.490, 191.627 130.895 C 194.316 128.663, 192.672 123, 189.335 123 C 188.640 123, 187.580 123.917, 186.980 125.038 M 200.229 124.171 C 198.541 125.859, 198.685 129.494, 200.500 131 C 202.782 132.894, 205.177 130.439, 204.801 126.593 C 204.478 123.287, 202.278 122.122, 200.229 124.171 M 211.667 123.667 C 210.237 125.096, 211.129 126, 213.969 126 C 216.197 126, 216.794 125.626, 216.362 124.500 C 215.775 122.972, 212.876 122.458, 211.667 123.667 M 98.446 129.087 C 98.077 129.685, 98.200 130.600, 98.720 131.120 C 99.975 132.375, 103 131.155, 103 129.393 C 103 127.752, 99.420 127.511, 98.446 129.087" stroke="none" fill="#0490ae" fill-rule="evenodd"/><path d="M -0 71.504 L -0 143.007 134.250 142.754 L 268.500 142.500 268.757 71.250 L 269.013 0 134.507 0 L 0 0 -0 71.504 M 0.474 72 C 0.474 111.325, 0.598 127.412, 0.750 107.750 C 0.901 88.088, 0.901 55.913, 0.750 36.250 C 0.598 16.587, 0.474 32.675, 0.474 72 M 8 67 L 8 127 18.500 127 C 28.333 127, 29 126.873, 29 125 C 29 123.157, 28.333 123, 20.500 123 L 12 123 12 67 L 12 11 133.500 11 L 255 11 255 67 L 255 123 246.500 123 C 238.667 123, 238 123.157, 238 125 C 238 126.873, 238.667 127, 248.500 127 L 259 127 259 67 L 259 7 133.500 7 L 8 7 8 67 M 187.659 32.750 C 187.025 33.784, 175 80.430, 175 81.853 C 175 83.181, 176.924 83.335, 178.783 82.155 C 179.954 81.412, 192 37.096, 192 33.532 C 192 31.984, 188.513 31.356, 187.659 32.750 M 44.101 51.283 C 30.139 57.761, 27.694 59.695, 29.606 62.750 C 30.791 64.643, 56.374 76.912, 59.250 76.967 C 60.521 76.991, 61 76.208, 61 74.107 C 61 71.480, 60.202 70.806, 52.302 66.762 C 47.518 64.314, 43.437 61.810, 43.233 61.200 C 43.030 60.589, 46.944 58.039, 51.931 55.534 C 60.319 51.322, 61 50.755, 61 47.990 C 61 45.796, 60.534 45.009, 59.250 45.033 C 58.288 45.052, 51.470 47.864, 44.101 51.283 M 90.491 46.865 C 77.301 52.857, 73.713 71.314, 84.723 76.539 C 89.117 78.624, 95.518 77.961, 101.059 74.847 C 105.222 72.507, 106.663 70.263, 105.043 68.643 C 104.346 67.946, 102.725 68.348, 99.956 69.905 C 95.213 72.570, 91.355 72.107, 90.074 68.720 C 88.938 65.716, 89.554 65.004, 93.309 64.978 C 100.438 64.929, 108 59.386, 108 54.210 C 108 52.240, 108.360 51.976, 110.250 52.557 C 111.487 52.937, 112.679 53.409, 112.898 53.606 C 113.117 53.802, 112.468 58.925, 111.457 64.990 C 110.306 71.891, 109.970 76.370, 110.560 76.960 C 111.730 78.130, 119.003 76.614, 120.007 74.989 C 120.399 74.354, 121.004 70.483, 121.350 66.387 C 122.076 57.803, 124.123 53, 127.057 53 C 130.133 53, 130.465 55.472, 128.790 65.903 C 127.043 76.779, 127.493 78.226, 132.337 77.330 C 137.207 76.430, 138.123 74.888, 139.129 65.894 C 140.131 56.936, 141.910 53, 144.956 53 C 147.899 53, 148.250 56.080, 146.485 66.441 C 145.592 71.680, 145.144 76.425, 145.490 76.984 C 146.853 79.189, 154.785 77.073, 158.290 73.567 C 160.550 71.307, 160.447 70.350, 157.868 69.676 C 156.200 69.240, 155.874 68.615, 156.372 66.809 C 156.721 65.539, 157.293 61.280, 157.643 57.343 C 158.244 50.566, 158.140 50.049, 155.684 47.593 C 152.462 44.371, 149.700 44.338, 144.242 47.459 L 139.984 49.893 137.537 47.447 C 134.476 44.385, 131.640 44.372, 126.357 47.394 L 122.213 49.763 121.098 47.317 C 119.873 44.627, 118.578 44.709, 111.880 47.897 C 108.334 49.585, 108.205 49.573, 105.574 47.310 C 102.245 44.446, 96.208 44.268, 90.491 46.865 M 206 47.990 C 206 50.755, 206.681 51.322, 215.069 55.534 C 220.299 58.161, 223.971 60.599, 223.745 61.294 C 223.529 61.958, 219.448 64.463, 214.676 66.863 C 206.786 70.831, 206 71.488, 206 74.113 C 206 76.209, 206.480 76.991, 207.750 76.967 C 210.626 76.912, 236.209 64.643, 237.394 62.750 C 238.189 61.481, 238.187 60.519, 237.389 59.250 C 236.214 57.383, 210.689 45.163, 207.750 45.061 C 206.460 45.016, 206 45.786, 206 47.990 M 92.625 51.862 C 90.004 54.758, 88.781 59.979, 90.562 60.662 C 92.566 61.431, 96.894 58.409, 98.017 55.456 C 99.889 50.532, 96.109 48.012, 92.625 51.862 M 41.200 118.200 C 38.749 120.651, 39.800 124.019, 43.500 125.564 C 45.922 126.576, 47 127.673, 47 129.123 C 47 130.931, 46.518 131.162, 43.483 130.808 C 41.308 130.554, 40.097 130.799, 40.310 131.449 C 40.499 132.027, 41.884 132.645, 43.388 132.822 C 49.662 133.562, 51.104 126.646, 45.214 124.054 C 40.925 122.167, 41.279 119.441, 45.786 119.647 C 49.169 119.803, 50.101 118.637, 47.418 117.607 C 44.944 116.658, 42.510 116.890, 41.200 118.200 M 65.667 117.667 C 65.300 118.033, 65 119.158, 65 120.167 C 65 121.175, 64.460 122, 63.800 122 C 62.867 122, 62.867 122.267, 63.800 123.200 C 64.460 123.860, 65 126.335, 65 128.700 C 65 131.065, 65.450 133, 66 133 C 66.550 133, 67 130.750, 67 128 C 67 123.943, 67.330 122.981, 68.750 122.900 C 69.874 122.836, 69.619 122.555, 68.036 122.114 L 65.573 121.427 67.786 119.214 C 69.795 117.205, 69.830 117, 68.167 117 C 67.158 117, 66.033 117.300, 65.667 117.667 M 140 119.500 C 140 121.571, 139.520 122, 137.200 122 C 133.548 122, 132 123.660, 132 127.578 C 132 131.596, 133.526 132.850, 138.250 132.712 L 142 132.604 142 124.802 C 142 120.267, 141.581 117, 141 117 C 140.450 117, 140 118.125, 140 119.500 M 180 125 C 180 129.667, 180.417 133, 181 133 C 181.583 133, 182 129.667, 182 125 C 182 120.333, 181.583 117, 181 117 C 180.417 117, 180 120.333, 180 125 M 72.500 120.259 C 71.950 121.492, 71.725 124.750, 72 127.500 C 72.424 131.741, 72.841 132.548, 74.750 132.820 C 75.987 132.995, 77 132.658, 77 132.070 C 77 131.481, 76.438 131.113, 75.750 131.250 C 73.653 131.669, 73.535 124.813, 75.612 123.294 C 77.161 122.162, 77.180 122, 75.761 122 C 74.869 122, 73.995 121.104, 73.820 120.009 C 73.517 118.124, 73.447 118.138, 72.500 120.259 M 51.852 124.426 C 50.257 127.927, 51.534 131.845, 54.513 132.593 C 57.856 133.432, 59.792 132.550, 61.151 129.569 C 62.063 127.566, 61.960 126.587, 60.619 124.541 C 58.342 121.066, 53.412 121.002, 51.852 124.426 M 79 122.822 C 79 124.734, 82.257 133, 83.011 133 C 83.463 133, 84.483 131.088, 85.276 128.750 L 86.719 124.500 88.018 128.750 C 88.732 131.088, 89.920 133, 90.658 133 C 91.396 133, 92.005 132.662, 92.011 132.250 C 92.017 131.838, 92.670 129.363, 93.463 126.750 C 95.251 120.857, 93.705 120.413, 91.724 126.250 L 90.281 130.500 88.974 126.222 C 87.485 121.351, 85.944 121.212, 84.620 125.828 C 83.435 129.961, 82.382 129.847, 81.566 125.500 C 81.205 123.575, 80.480 122, 79.955 122 C 79.430 122, 79 122.370, 79 122.822 M 97.536 122.941 C 97.216 123.459, 98.185 123.797, 99.688 123.691 C 101.585 123.559, 102.533 124.036, 102.784 125.250 C 103.051 126.539, 102.501 127, 100.696 127 C 97.808 127, 95.535 129.346, 96.354 131.481 C 96.753 132.520, 98.186 132.939, 100.966 132.830 L 105 132.672 105 128.536 C 105 126.261, 104.460 123.860, 103.800 123.200 C 102.373 121.773, 98.361 121.607, 97.536 122.941 M 108 127.662 C 108 130.598, 108.450 133, 109 133 C 109.550 133, 110 131.189, 110 128.975 C 110 125.602, 110.405 124.797, 112.500 124 C 115.975 122.679, 115.621 122.038, 111.500 122.192 L 108 122.324 108 127.662 M 117.035 123.934 C 113.958 129.685, 119.695 135.480, 125 131.980 C 126.140 131.228, 125.774 131.038, 123.471 131.191 C 119.926 131.426, 118 130.458, 118 128.441 C 118 127.427, 119.184 127, 122 127 C 124.615 127, 126 126.550, 126 125.700 C 126 121.913, 118.869 120.509, 117.035 123.934 M 145.333 124.615 C 143.798 126.958, 143.773 127.505, 145.091 129.865 C 146.718 132.778, 151.478 133.976, 153.372 131.949 C 154.242 131.018, 153.887 130.886, 151.822 131.372 C 150.030 131.793, 148.622 131.479, 147.563 130.420 C 145.385 128.243, 146.474 127, 150.559 127 C 154.133 127, 155.048 125.448, 152.800 123.200 C 150.746 121.146, 147.161 121.825, 145.333 124.615 M 157.173 126.750 C 159.323 131.705, 160.665 133.668, 161.400 132.933 C 161.638 132.695, 162.764 130.137, 163.902 127.250 C 166.346 121.048, 164.902 120.105, 162.255 126.174 L 160.435 130.349 159.058 126.174 C 158.300 123.878, 157.102 122, 156.396 122 C 155.460 122, 155.671 123.287, 157.173 126.750 M 168.035 123.934 C 164.958 129.685, 170.695 135.480, 176 131.980 C 177.140 131.228, 176.774 131.038, 174.471 131.191 C 170.926 131.426, 169 130.458, 169 128.441 C 169 127.427, 170.184 127, 173 127 C 175.615 127, 177 126.550, 177 125.700 C 177 121.913, 169.869 120.509, 168.035 123.934 M 185.381 124.541 C 184.040 126.587, 183.937 127.566, 184.849 129.569 C 186.208 132.550, 188.144 133.432, 191.487 132.593 C 194.466 131.845, 195.743 127.927, 194.148 124.426 C 192.588 121.002, 187.658 121.066, 185.381 124.541 M 197 129.662 C 197 133.887, 197.424 137, 198 137 C 198.550 137, 199 135.937, 199 134.639 C 199 132.658, 199.404 132.355, 201.506 132.756 C 204.913 133.408, 207 131.411, 207 127.500 C 207 123.403, 205.343 122.010, 200.676 122.186 L 197 122.324 197 129.662 M 210.200 123.200 C 208.501 124.899, 208.712 129.569, 210.571 131.429 C 212.409 133.266, 216.566 133.511, 217.597 131.842 C 218.080 131.061, 217.659 130.856, 216.298 131.212 C 213.812 131.862, 211 130.396, 211 128.450 C 211 127.425, 212.172 127, 215 127 C 219.341 127, 219.511 126.824, 217.965 123.934 C 216.792 121.742, 212.101 121.299, 210.200 123.200 M 221 127.662 C 221 130.598, 221.450 133, 222 133 C 222.550 133, 223 131.189, 223 128.975 C 223 125.602, 223.405 124.797, 225.500 124 C 228.975 122.679, 228.621 122.038, 224.500 122.192 L 221 122.324 221 127.662 M 54.200 124.200 C 52.585 125.815, 52.680 129.490, 54.373 130.895 C 57.500 133.490, 61.109 128.941, 59.020 125.038 C 57.790 122.739, 55.976 122.424, 54.200 124.200 M 119.036 124.457 C 117.927 125.793, 118.185 126, 120.961 126 C 123.081 126, 124.026 125.577, 123.750 124.750 C 123.126 122.873, 120.486 122.709, 119.036 124.457 M 135.229 124.171 C 133.605 125.795, 133.662 129.474, 135.332 130.861 C 137.502 132.662, 140.238 129.987, 139.836 126.459 C 139.474 123.287, 137.228 122.172, 135.229 124.171 M 147.701 123.632 C 146.295 125.038, 147.059 126, 149.583 126 C 151.205 126, 152.012 125.535, 151.750 124.750 C 151.269 123.304, 148.730 122.603, 147.701 123.632 M 170.036 124.457 C 168.927 125.793, 169.185 126, 171.961 126 C 174.081 126, 175.026 125.577, 174.750 124.750 C 174.126 122.873, 171.486 122.709, 170.036 124.457 M 186.980 125.038 C 184.891 128.941, 188.500 133.490, 191.627 130.895 C 194.316 128.663, 192.672 123, 189.335 123 C 188.640 123, 187.580 123.917, 186.980 125.038 M 200.229 124.171 C 198.541 125.859, 198.685 129.494, 200.500 131 C 202.782 132.894, 205.177 130.439, 204.801 126.593 C 204.478 123.287, 202.278 122.122, 200.229 124.171 M 211.667 123.667 C 210.237 125.096, 211.129 126, 213.969 126 C 216.197 126, 216.794 125.626, 216.362 124.500 C 215.775 122.972, 212.876 122.458, 211.667 123.667 M 98.446 129.087 C 98.077 129.685, 98.200 130.600, 98.720 131.120 C 99.975 132.375, 103 131.155, 103 129.393 C 103 127.752, 99.420 127.511, 98.446 129.087" stroke="none" fill="#040607" fill-rule="evenodd"/></svg>